<?xml version="1.0" encoding="utf-8"?>
<!-- Generator: Adobe Illustrator 24.3.0, SVG Export Plug-In . SVG Version: 6.00 Build 0)  -->
<svg version="1.1" id="Layer_1" xmlns="http://www.w3.org/2000/svg" xmlns:xlink="http://www.w3.org/1999/xlink" x="0px" y="0px"
	 viewBox="0 0 122.383 150.682" enable-background="new 0 0 122.383 150.682" xml:space="preserve">
<g>
	<path d="M-430.14,82.81c-20.304,0.009-36.757,16.475-36.748,36.779c0.005,12.316,6.177,23.811,16.44,30.62
		c0.464,0.308,1.007,0.472,1.564,0.472h37.488c0.556,0,1.1-0.164,1.564-0.472c16.919-11.224,21.536-34.039,10.312-50.959
		C-406.328,88.988-417.824,82.816-430.14,82.81z M-430.14,133.714c-7.809,0-14.14-6.331-14.14-14.14s6.331-14.14,14.14-14.14
		s14.14,6.331,14.14,14.14S-422.33,133.714-430.14,133.714z"/>
</g>
<g>
	<path d="M-310.364,78.546c1.922-2.069,4.011-3.976,6.246-5.701l-0.973-9.234c-0.788-7.478,4.636-14.179,12.114-14.966
		c0.474-0.05,0.95-0.075,1.426-0.075h37.073c7.519,0,13.615,6.096,13.615,13.615c0,0.476-0.025,0.952-0.075,1.426l-0.973,9.234
		c2.236,1.725,4.325,3.632,6.246,5.701l1.498-14.224c1.181-11.217-6.956-21.267-18.173-22.448c-0.71-0.075-1.423-0.112-2.137-0.112
		h-37.073c-11.279,0-20.422,9.144-20.422,20.423c0,0.714,0.037,1.427,0.112,2.137L-310.364,78.546z"/>
	<path d="M-273.014,68.992c-24.438,0.01-44.24,19.83-44.23,44.267c0.006,14.824,7.435,28.659,19.788,36.854
		c0.558,0.371,1.213,0.568,1.882,0.568h45.12c0.67,0,1.324-0.198,1.882-0.568c20.364-13.509,25.921-40.969,12.412-61.334
		C-244.355,76.427-258.191,68.998-273.014,68.992z M-273.014,130.259c-9.399,0-17.019-7.62-17.019-17.019s7.62-17.019,17.019-17.019
		c9.399,0,17.019,7.62,17.019,17.019S-263.615,130.259-273.014,130.259z"/>
</g>
<g>
	<path d="M-155.488,65.531c2.268-2.442,4.734-4.693,7.373-6.73l-1.149-10.901c-0.93-8.827,5.472-16.737,14.3-17.667
		c0.559-0.059,1.121-0.088,1.684-0.088h43.763c8.876,0,16.072,7.195,16.072,16.072c0,0.562-0.03,1.124-0.088,1.684l-1.149,10.901
		c2.639,2.036,5.105,4.287,7.373,6.73l1.768-16.791c1.394-13.241-8.211-25.105-21.452-26.498c-0.838-0.088-1.68-0.132-2.523-0.132
		h-43.763c-13.314,0-24.107,10.793-24.107,24.107c0,0.843,0.044,1.685,0.132,2.523L-155.488,65.531z"/>
	<path d="M-111.4,54.252c-28.847,0.012-52.223,23.407-52.21,52.255c0.007,17.498,8.776,33.83,23.358,43.504
		c0.658,0.437,1.431,0.671,2.222,0.671h53.261c0.791,0,1.563-0.234,2.222-0.671c24.039-15.947,30.598-48.362,14.651-72.4
		C-77.57,63.029-93.902,54.26-111.4,54.252z M-111.4,126.574c-11.095,0-20.089-8.994-20.089-20.089s8.994-20.089,20.089-20.089
		s20.089,8.994,20.089,20.089S-100.305,126.574-111.4,126.574z"/>
</g>
<g>
	<path fill="#E10914" d="M9.519,50.888c2.659-2.862,5.549-5.5,8.641-7.887l-1.347-12.775c-1.09-10.345,6.413-19.615,16.759-20.705
		c0.655-0.069,1.314-0.104,1.973-0.104h51.288c10.402,0,18.835,8.433,18.835,18.835c0,0.659-0.035,1.318-0.104,1.973l-1.347,12.775
		c3.093,2.386,5.983,5.024,8.641,7.887l2.072-19.678c1.633-15.518-9.623-29.422-25.14-31.055C88.807,0.052,87.82,0,86.833,0H35.544
		C19.941,0,7.292,12.649,7.292,28.253c0,0.988,0.052,1.975,0.155,2.957L9.519,50.888z"/>
	<path fill="#E10914" d="M61.188,37.67C27.381,37.685-0.014,65.103,0,98.911c0.009,20.507,10.286,39.648,27.375,50.984
		c0.772,0.513,1.678,0.786,2.604,0.786h62.42c0.926,0,1.832-0.274,2.604-0.786c28.172-18.689,35.86-56.678,17.171-84.85
		C100.836,47.956,81.696,37.679,61.188,37.67z M61.188,122.429c-13.003,0-23.544-10.541-23.544-23.544s10.541-23.544,23.544-23.544
		s23.544,10.541,23.544,23.544S74.191,122.429,61.188,122.429z"/>
</g>
</svg>
