<svg xmlns="http://www.w3.org/2000/svg" width="53.926" height="120.339" viewBox="0 0 53.926 120.339">
  <g id="alert-i" transform="translate(-7.15 -1)">
    <path id="Path_6" data-name="Path 6" d="M58.64,74.962l-1.675,6.865c-5.683,2.239-25.37,11.634-36.724,1.637a14.42,14.42,0,0,1-5.075-11.327c0-8.579,2.825-16.057,7.895-34.014.892-3.389,1.987-7.8,1.987-11.289,0-6.022-2.283-7.626-8.486-7.626-3.028,0-6.378,1.079-9.411,2.212l1.681-6.865c6.761-2.748,15.253-6.1,22.528-6.1,10.911,0,18.932,5.442,18.932,15.789a47.983,47.983,0,0,1-1.6,11.82L42.418,58.258c-1.292,4.489-3.646,14.377-.011,17.311C45.993,78.465,54.462,76.932,58.64,74.962Z" transform="translate(0 33.359)" fill="#191919"/>
    <circle id="Ellipse_1" data-name="Ellipse 1" cx="13.687" cy="13.687" r="13.687" transform="translate(33.702 1)" fill="#191919"/>
  </g>
</svg>
