<?xml version="1.0" encoding="UTF-8" standalone="no"?>
<svg
   xmlns:dc="http://purl.org/dc/elements/1.1/"
   xmlns:cc="http://creativecommons.org/ns#"
   xmlns:rdf="http://www.w3.org/1999/02/22-rdf-syntax-ns#"
   xmlns:svg="http://www.w3.org/2000/svg"
   xmlns="http://www.w3.org/2000/svg"
   viewBox="0 0 630.64001 322"
   height="322"
   width="630.64001"
   xml:space="preserve"
   id="svg2"
   version="1.1"><metadata
     id="metadata8"><rdf:RDF><cc:Work
         rdf:about=""><dc:format>image/svg+xml</dc:format><dc:type
           rdf:resource="http://purl.org/dc/dcmitype/StillImage" /></cc:Work></rdf:RDF></metadata><defs
     id="defs6" /><g
     transform="matrix(1.3333333,0,0,-1.3333333,0,322)"
     id="g10"><g
       transform="scale(0.1)"
       id="g12"><path
         id="path14"
         style="fill:#ffffff;fill-opacity:1;fill-rule:nonzero;stroke:none"
         d="m 311.281,1832.7 v 571.08 H 428.059 V 1832.7 H 311.281" /><path
         id="path16"
         style="fill:#ffffff;fill-opacity:1;fill-rule:nonzero;stroke:none"
         d="M 735.055,2403.78 H 845.434 V 1832.7 H 699.07 l -100.785,399.12 h -1.597 V 1832.7 H 486.313 v 571.08 h 147.972 l 99.18,-402.31 h 1.59 v 402.31" /><path
         id="path18"
         style="fill:#ffffff;fill-opacity:1;fill-rule:nonzero;stroke:none"
         d="m 1199.65,1832.7 h -75.99 l -16.8,41.58 c -23.99,-35.19 -43.98,-52.78 -94.37,-52.78 -67.998,0 -113.588,39.99 -113.588,112.77 v 346.34 c 0,94.38 40.797,134.37 147.178,134.37 112.77,0 153.57,-39.99 153.57,-134.37 v -35.19 h -116.78 v 34.39 c 0,22.4 -9.6,31.19 -33.59,31.19 -24,0 -33.6,-8.79 -33.6,-31.19 v -323.14 c 0,-22.4 9.6,-31.2 33.6,-31.2 23.99,0 33.59,8.8 33.59,31.2 v 122.37 h -34.39 v 103.99 h 151.17 V 1832.7" /><path
         id="path20"
         style="fill:#ffffff;fill-opacity:1;fill-rule:nonzero;stroke:none"
         d="m 1253.12,2403.78 h 239.95 V 2299.81 H 1369.9 v -116.78 h 117.57 V 2079.04 H 1369.9 v -142.37 h 123.17 V 1832.7 h -239.95 v 571.08" /><path
         id="path22"
         style="fill:#ffffff;fill-opacity:1;fill-rule:nonzero;stroke:none"
         d="m 1791.35,2403.78 h 110.38 V 1832.7 h -146.37 l -100.78,399.12 h -1.59 V 1832.7 h -110.38 v 571.08 h 147.97 l 99.18,-402.31 h 1.59 v 402.31" /><path
         id="path24"
         style="fill:#ffffff;fill-opacity:1;fill-rule:nonzero;stroke:none"
         d="m 2256.44,1955.87 c 0,-107.18 -47.99,-134.37 -150.37,-134.37 -102.38,0 -150.38,27.19 -150.38,134.37 v 447.91 h 116.78 v -430.3 c 0,-40 9.6,-48.01 33.6,-48.01 23.99,0 33.59,8.01 33.59,48.01 v 430.3 h 116.78 v -447.91" /><path
         id="path26"
         style="fill:#ffffff;fill-opacity:1;fill-rule:nonzero;stroke:none"
         d="m 2311.25,1832.7 v 571.08 h 116.78 V 1832.7 h -116.78" /><path
         id="path28"
         style="fill:#ffffff;fill-opacity:1;fill-rule:nonzero;stroke:none"
         d="m 2556.27,2299.81 h -86.39 v 103.97 h 289.54 v -103.97 h -86.39 V 1832.7 h -116.76 v 467.11" /><path
         id="path30"
         style="fill:#ffffff;fill-opacity:1;fill-rule:nonzero;stroke:none"
         d="m 2966.78,2198.22 h 1.6 l 58.39,205.56 h 122.38 L 3025.18,2050.25 V 1832.7 H 2908.4 v 217.55 l -123.18,353.53 h 122.38 l 59.18,-205.56" /><path
         id="path32"
         style="fill:#ffffff;fill-opacity:1;fill-rule:nonzero;stroke:none"
         d="m 3311,1994.84 h 15.72 c 14.01,0 18.26,6.8 18.26,39.93 0,43.32 -3.4,45.87 -18.26,45.87 H 3311 Z m 0,-162.27 h -62.01 v 303.29 h 76.45 c 60.74,0 79.86,-15.29 79.86,-69.23 v -57.78 c 0,-53.94 -19.12,-69.23 -79.86,-69.23 H 3311 v -107.05" /><path
         id="path34"
         style="fill:#ffffff;fill-opacity:1;fill-rule:nonzero;stroke:none"
         d="m 3484.89,1941.32 h 29.73 l -13.17,143.57 h -0.85 z m -77.31,-108.75 51.39,303.29 h 82.4 l 51.41,-303.29 h -64.14 l -7.22,53.53 h -42.91 l -6.37,-53.53 h -64.56" /><path
         id="path36"
         style="fill:#ffffff;fill-opacity:1;fill-rule:nonzero;stroke:none"
         d="m 3702.85,2044.54 v 16.98 c 0,17.43 -5.52,25.07 -17.84,25.07 -12.74,0 -17.84,-7.22 -17.84,-25.07 0,-53.09 97.7,-53.09 97.7,-152.06 0,-63.29 -19.54,-82.83 -80.28,-82.83 -56.5,0 -79.44,16.99 -79.44,73.06 v 28.46 h 62.02 v -21.24 c 0,-17.42 5.52,-25.07 17.84,-25.07 12.74,0 17.84,7.23 17.84,25.07 -0.43,62.86 -97.7,56.49 -97.7,157.59 0,54.37 20.39,77.3 79.86,77.3 52.67,0 78.16,-19.53 78.16,-73.48 v -23.78 h -60.32" /><path
         id="path38"
         style="fill:#ffffff;fill-opacity:1;fill-rule:nonzero;stroke:none"
         d="m 3880.94,2044.54 v 16.98 c 0,17.43 -5.53,25.07 -17.85,25.07 -12.74,0 -17.84,-7.22 -17.84,-25.07 0,-53.09 97.7,-53.09 97.7,-152.06 0,-63.29 -19.54,-82.83 -80.28,-82.83 -56.5,0 -79.44,16.99 -79.44,73.06 v 28.46 h 62.02 v -21.24 c 0,-17.42 5.52,-25.07 17.84,-25.07 12.75,0 17.85,7.23 17.85,25.07 -0.43,62.86 -97.71,56.49 -97.71,157.59 0,54.37 20.4,77.3 79.86,77.3 52.67,0 78.16,-19.53 78.16,-73.48 v -23.78 h -60.31" /><path
         id="path40"
         style="fill:#ffffff;fill-opacity:1;fill-rule:nonzero;stroke:none"
         d="m 3967.86,1832.57 v 303.29 h 62.02 v -303.29 h -62.02" /><path
         id="path42"
         style="fill:#ffffff;fill-opacity:1;fill-rule:nonzero;stroke:none"
         d="m 4120.53,1898.41 c 0,-11.89 5.1,-16.57 17.85,-16.57 12.74,0 17.84,4.68 17.84,16.57 v 171.61 c 0,11.9 -5.1,16.57 -17.84,16.57 -12.75,0 -17.85,-4.67 -17.85,-16.57 z m -62.02,172.04 c 0,56.92 25.5,71.35 79.87,71.35 54.37,0 79.85,-14.43 79.85,-71.35 v -172.46 c 0,-56.92 -25.48,-71.36 -79.85,-71.36 -54.37,0 -79.87,14.44 -79.87,71.36 v 172.46" /><path
         id="path44"
         style="fill:#ffffff;fill-opacity:1;fill-rule:nonzero;stroke:none"
         d="m 4378.51,2135.86 h 58.62 v -303.29 h -77.73 l -53.52,211.97 h -0.85 v -211.97 h -58.62 v 303.29 H 4325 l 52.66,-213.66 h 0.85 v 213.66" /><path
         id="path46"
         style="fill:#ffffff;fill-opacity:1;fill-rule:nonzero;stroke:none"
         d="M 0.00390625,1687.81 H 359.242 V 1532.13 H 174.836 V 1357.31 H 350.855 V 1201.62 H 174.836 V 988.469 H 359.242 V 832.781 H 0.00390625 v 855.029" /><path
         id="path48"
         style="fill:#ffffff;fill-opacity:1;fill-rule:nonzero;stroke:none"
         d="m 597.234,1278.26 -171.246,409.55 h 183.219 l 85.02,-232.32 -2.387,2.4 v -2.4 h 2.387 l 81.429,232.32 H 958.875 L 787.629,1278.26 976.844,832.781 H 791.219 L 693.039,1095.03 596.027,832.781 H 410.422 l 186.812,445.479" /><path
         id="path50"
         style="fill:#ffffff;fill-opacity:1;fill-rule:nonzero;stroke:none"
         d="m 1012.09,1503.41 c 0,141.29 61.08,201.16 220.35,201.16 159.26,0 220.34,-59.87 220.34,-201.16 v -120.96 h -174.84 v 128.14 c 0,25.14 -21.55,38.3 -45.5,38.3 -31.14,0 -45.51,-13.16 -45.51,-59.88 v -457.43 c 0,-46.721 14.37,-59.881 45.51,-59.881 23.95,0 45.5,13.16 45.5,38.311 v 158.08 h 174.84 v -150.87 c 0,-141.322 -61.08,-201.2 -220.34,-201.2 -159.27,0 -220.35,59.878 -220.35,201.2 v 486.19" /><path
         id="path52"
         style="fill:#ffffff;fill-opacity:1;fill-rule:nonzero;stroke:none"
         d="m 1525.9,1687.81 h 359.23 v -155.68 h -184.4 v -174.82 h 176.02 V 1201.62 H 1700.73 V 988.469 h 184.4 V 832.781 H 1525.9 v 855.029" /><path
         id="path54"
         style="fill:#ffffff;fill-opacity:1;fill-rule:nonzero;stroke:none"
         d="m 1959.32,832.781 v 855.029 h 174.84 V 988.469 h 184.4 V 832.781 h -359.24" /><path
         id="path56"
         style="fill:#ffffff;fill-opacity:1;fill-rule:nonzero;stroke:none"
         d="m 2382.45,832.781 v 855.029 h 174.83 V 988.469 h 184.41 V 832.781 h -359.24" /><path
         id="path58"
         style="fill:#ffffff;fill-opacity:1;fill-rule:nonzero;stroke:none"
         d="m 2805.57,1687.81 h 359.24 v -155.68 h -184.4 v -174.82 h 176.02 V 1201.62 H 2980.41 V 988.469 h 184.4 V 832.781 h -359.24 v 855.029" /><path
         id="path60"
         style="fill:#ffffff;fill-opacity:1;fill-rule:nonzero;stroke:none"
         d="m 3611.4,1687.81 h 165.25 V 832.781 h -219.13 l -150.9,597.559 h -2.38 V 832.781 h -165.25 v 855.029 h 221.53 l 148.49,-602.33 h 2.39 v 602.33" /><path
         id="path62"
         style="fill:#ffffff;fill-opacity:1;fill-rule:nonzero;stroke:none"
         d="m 3856.72,1503.41 c 0,141.29 61.08,201.16 220.35,201.16 159.26,0 220.33,-59.87 220.33,-201.16 v -120.96 h -174.83 v 128.14 c 0,25.14 -21.56,38.3 -45.5,38.3 -31.14,0 -45.52,-13.16 -45.52,-59.88 v -457.43 c 0,-46.721 14.38,-59.881 45.52,-59.881 23.94,0 45.5,13.16 45.5,38.311 v 158.08 h 174.83 v -150.87 c 0,-141.322 -61.07,-201.2 -220.33,-201.2 -159.27,0 -220.35,59.878 -220.35,201.2 v 486.19" /><path
         id="path64"
         style="fill:#ffffff;fill-opacity:1;fill-rule:nonzero;stroke:none"
         d="m 4370.52,1687.81 h 359.24 v -155.68 h -184.4 v -174.82 h 176.01 V 1201.62 H 4545.36 V 988.469 h 184.4 V 832.781 h -359.24 v 855.029" /><path
         id="path66"
         style="fill:#ffffff;fill-opacity:1;fill-rule:nonzero;stroke:none"
         d="m 1832.39,374.48 h 34.98 c 31.21,0 40.66,15.129 40.66,88.891 0,96.438 -7.57,102.141 -40.66,102.141 h -34.98 z m 0,-361.2417 H 1694.32 V 688.43 h 170.21 c 135.23,0 177.78,-34.051 177.78,-154.141 V 405.672 c 0,-120.09 -42.55,-154.141 -177.78,-154.141 h -32.14 V 13.2383" /><path
         id="path68"
         style="fill:#ffffff;fill-opacity:1;fill-rule:nonzero;stroke:none"
         d="m 2229.04,159.809 c 0,-26.477 11.35,-36.899 39.73,-36.899 28.36,0 39.71,10.422 39.71,36.899 v 382.043 c 0,26.48 -11.35,36.898 -39.71,36.898 -28.38,0 -39.73,-10.418 -39.73,-36.898 z m -138.07,382.992 c 0,126.719 56.75,158.859 177.8,158.859 121.04,0 177.78,-32.14 177.78,-158.859 V 158.859 C 2446.55,32.1484 2389.81,0 2268.77,0 c -121.05,0 -177.8,32.1484 -177.8,158.859 v 383.942" /><path
         id="path70"
         style="fill:#ffffff;fill-opacity:1;fill-rule:nonzero;stroke:none"
         d="m 2483.27,688.43 h 142.79 l 55.81,-527.66 h 1.88 l 59.59,527.66 h 155.08 l 61.47,-528.621 h 1.89 l 53.91,528.621 h 142.78 L 3054.46,13.2383 h -174 l -58.64,516.3207 h -1.89 L 2761.3,13.2383 h -174 L 2483.27,688.43" /><path
         id="path72"
         style="fill:#ffffff;fill-opacity:1;fill-rule:nonzero;stroke:none"
         d="m 3208.57,688.43 h 283.69 V 565.512 H 3346.64 V 427.43 h 139 V 304.488 h -139 V 136.16 h 145.62 V 13.2383 H 3208.57 V 688.43" /><path
         id="path74"
         style="fill:#ffffff;fill-opacity:1;fill-rule:nonzero;stroke:none"
         d="m 3688.91,427.43 h 34.98 c 29.32,0 40.67,9.468 40.67,69.039 0,55.801 -7.57,69.043 -40.67,69.043 h -34.98 z M 3550.85,13.2383 V 688.43 h 176.83 c 121.04,0 174.95,-30.25 174.95,-138.059 v -80.383 c 0,-40.66 -17.03,-91.738 -79.43,-101.187 v -1.891 c 56.73,-9.449 83.21,-47.289 83.21,-133.34 V 87 c 0,-52.0117 0,-63.3711 9.46,-73.7617 h -139.02 c -5.67,10.3906 -8.51,19.8633 -8.51,27.4336 V 270.441 c 0,22.707 -16.07,34.047 -44.45,34.047 h -34.98 V 13.2383 h -138.06" /><path
         id="path76"
         style="fill:#ffffff;fill-opacity:1;fill-rule:nonzero;stroke:none"
         d="m 729.25,529.27 h 17.73 c 15.825,0 20.614,7.66 20.614,45.05 0,48.91 -3.832,51.782 -20.614,51.782 h -17.73 z m 0,-183.141 H 659.254 V 688.43 h 86.289 c 68.555,0 90.129,-17.258 90.129,-78.141 V 545.09 c 0,-60.891 -21.574,-78.149 -90.129,-78.149 H 729.25 V 346.129" /><path
         id="path78"
         style="fill:#ffffff;fill-opacity:1;fill-rule:nonzero;stroke:none"
         d="m 932.633,556.121 h 17.734 c 14.86,0 20.613,4.777 20.613,34.981 0,28.289 -3.835,35 -20.613,35 H 932.633 Z M 862.641,346.129 V 688.43 h 89.64 c 61.369,0 88.689,-15.352 88.689,-70 v -40.75 c 0,-20.621 -8.62,-46.5 -40.26,-51.301 v -0.949 c 28.76,-4.801 42.18,-23.969 42.18,-67.598 V 383.52 c 0,-26.36 0,-32.11 4.79,-37.391 h -70.469 c -2.871,5.281 -4.313,10.07 -4.313,13.902 v 116.5 c 0,11.508 -8.144,17.258 -22.531,17.258 h -17.734 v -147.66 h -69.992" /><path
         id="path80"
         style="fill:#ffffff;fill-opacity:1;fill-rule:nonzero;stroke:none"
         d="M 1075.8,346.129 V 688.43 h 69.99 V 346.129 h -69.99" /><path
         id="path82"
         style="fill:#ffffff;fill-opacity:1;fill-rule:nonzero;stroke:none"
         d="m 1250.7,408.461 h 16.29 c 14.39,0 20.14,6.699 20.14,29.711 v 158.207 c 0,23.012 -5.75,29.723 -20.14,29.723 h -16.29 z m -69.99,279.969 h 86.28 c 61.37,0 90.13,-16.301 90.13,-80.551 V 426.68 c 0,-64.25 -28.76,-80.551 -90.13,-80.551 h -86.28 V 688.43" /><path
         id="path84"
         style="fill:#ffffff;fill-opacity:1;fill-rule:nonzero;stroke:none"
         d="m 1388.21,688.43 h 143.81 v -62.328 h -73.82 v -69.981 h 70.47 v -62.332 h -70.47 v -85.328 h 73.82 V 346.129 H 1388.21 V 688.43" /></g></g></svg>